# xmcd
#
# Track frame offsets: 
#        182
#        28992
#        53357
#        88470
#        112332
#        144327
#        179105
#        200657
#        234892
#        258985
#        281507
#        305132
#
# Disc length: 4409 seconds
#
# Revision: 1
# Processed by: cddbd v1.5.2PL0 Copyright (c) Steve Scherf et al.
# Submitted via: ExactAudioCopy v0.95b4
#
DISCID=b711370c
DTITLE=The Modern Jazz Quartet - The Last Concert [Disc 1 of 2]
DYEAR=1974
DGENRE=Jazz
TTITLE0=Softly As In A Morning Sunrise
TTITLE1=The Cylinder
TTITLE2=Summertime
TTITLE3=Really True Blues
TTITLE4=What's New?
TTITLE5=Blues In A Minor
TTITLE6=Confirmation
TTITLE7='Round Midnight
TTITLE8=A Night In Tunisia
TTITLE9=Tears From The Children
TTITLE10=Blues In H (B)
TTITLE11=England's Carol
EXTD=YEAR: 1974
EXTT0=
EXTT1=
EXTT2=
EXTT3=
EXTT4=
EXTT5=
EXTT6=
EXTT7=
EXTT8=
EXTT9=
EXTT10=
EXTT11=
PLAYORDER=
